<svg width="391" height="354" viewBox="0 0 391 354" fill="none" xmlns="http://www.w3.org/2000/svg">
<path d="M42.5171 189.042C39.0753 218.663 47.7191 232.076 74.8325 252.459C103.591 266.717 161.318 272.885 217.26 270.97M348.916 195.025C351.594 207.374 352.656 214.552 352.506 228.528C346.64 239.011 340.465 243.946 328.569 252.459C306.703 261.287 275.142 267.015 241.197 269.642" stroke="#FC00FF" stroke-opacity="0.22" stroke-width="11"/>
<path d="M45.6041 223.848C36.2025 226.092 33.6093 229.661 36.9497 242.213C37.1026 242.787 36.9884 243.426 36.6539 243.917C21.5235 266.153 32.2062 267.156 60.3516 264.973C61.476 264.886 62.4531 265.746 62.623 266.861C64.9641 282.228 84.7314 293.197 113.935 289.1C114.73 288.988 115.529 289.358 115.972 290.026C130.254 311.545 158 311.168 171.718 290.762C172.375 289.785 173.726 289.515 174.689 290.194C201.161 308.863 218.445 306.048 248.872 286.249C250.242 285.358 252.074 286.388 252.124 288.02C252.746 308.208 266.143 304.031 303.727 277.741C304.461 277.227 305.476 277.257 306.173 277.82C327.844 295.321 338.518 299.181 349.257 279.562C349.361 279.372 349.505 279.186 349.663 279.038C369.52 260.368 361.762 250.291 351.819 232.281" stroke="#FC00FF" stroke-opacity="0.22" stroke-width="11"/>
<path d="M45.7009 147.908C37.5687 194.524 98.4887 205.515 140.479 188.713C168.878 236.918 252.053 213.916 256.852 188.713C284.445 216.316 363.553 195.484 350.43 157.509" stroke="#FC00FF" stroke-opacity="0.22" stroke-width="11"/>
<path d="M85.0776 71.8619C85.6403 71.4666 86.2648 71.1079 86.8991 70.8154C173.12 31.0544 251.097 29.6288 327.105 78.6527L330.086 74.0308L327.105 78.6528C327.72 79.0498 328.314 79.5192 328.833 80.0197C340.67 91.4336 347.596 101.104 351.578 111.189C355.565 121.286 356.794 132.277 356.46 146.696C356.353 151.318 353.328 155.535 348.794 157.282C280.86 183.455 230.58 194.731 185.41 193.589C140.329 192.449 99.8042 178.925 51.36 154.522C47.6541 152.655 45.2486 149.106 45.01 145.257C43.9811 128.662 46.1999 116.052 52.2754 104.901C58.4081 93.645 68.7713 83.3158 85.0776 71.8619Z" stroke="#FC00FF" stroke-opacity="0.22" stroke-width="11"/>
<path d="M43.4949 147.275L6.63895 177.137C6.00057 177.654 6.24148 178.683 7.03687 178.888C91.6531 200.799 140.801 224.073 228.88 278.524C229.242 278.749 229.724 278.717 230.054 278.447C301.505 220.232 337.848 194.874 384.519 180.255C385.348 179.995 385.487 178.871 384.739 178.427L348.293 156.848" stroke="#FC00FF" stroke-opacity="0.22" stroke-width="11"/>
<path d="M50.4352 266.88C49.6824 277.312 49.3375 282.214 55.2727 293.194C57.5191 297.35 60.505 301.087 64.1765 304.059C119.286 348.68 258.546 346.771 336.695 311.373C351.128 304.835 347.52 295.74 348.723 281.31" stroke="#FC00FF" stroke-opacity="0.22" stroke-width="11"/>
<path d="M58.8979 173.494C61.1499 174.963 55.3051 171.852 69.9086 181.381C84.5121 190.91 118.193 181.669 101.829 187.881C96.3985 189.943 80.3863 192.517 65.7828 182.988C46.5883 167.597 51.6413 168.759 58.8979 173.494Z" fill="#FC00FF" fill-opacity="0.22"/>
<path d="M173.288 196.874C175.796 197.846 169.434 196.012 185.693 202.312C201.952 208.613 232.992 192.601 218.267 202.066C213.381 205.207 198.248 211.039 181.989 204.738C160.025 193.653 165.209 193.743 173.288 196.874Z" fill="#FC00FF" fill-opacity="0.22"/>
<path d="M293.439 188.011C296.127 187.927 289.553 188.721 306.982 188.177C324.411 187.632 346.741 160.777 336.878 175.237C333.604 180.036 321.947 191.311 304.518 191.855C279.97 190.221 284.778 188.281 293.439 188.011Z" fill="#FC00FF" fill-opacity="0.22"/>
<path d="M322.872 242.548C324.454 241.37 320.76 244.509 331.015 236.864C341.27 229.22 346.676 208.052 345.056 218.532C344.519 222.009 340.885 231.867 330.63 239.511C315.476 249.234 317.777 246.347 322.872 242.548Z" fill="#FC00FF" fill-opacity="0.22"/>
<path d="M365.093 119.363C363.234 124.013 369.072 100.872 349.493 74.9633C329.915 49.0545 282.294 38.9635 305.093 42.5637C312.911 43.7981 338.669 51.2688 358.247 77.1776C365.093 89.3632 372.293 101.363 365.093 119.363Z" fill="#FC00FF" fill-opacity="0.22"/>
<path d="M313.494 340.173C310.136 340.092 336.294 330.584 347.093 322.173C357.893 313.762 372.293 288.562 366.293 304.162C360.293 319.762 356.457 321.234 349.933 326.933C343.409 332.633 328.652 340.538 313.494 340.173Z" fill="#FC00FF" fill-opacity="0.22"/>
<path d="M86.8307 304.424C84.5305 301.637 115.093 317.266 133.305 321.025C151.518 324.785 193.244 321.403 169.497 325.873C145.751 330.344 141.172 328.098 129.399 326.199C117.625 324.299 97.2139 317.008 86.8307 304.424Z" fill="#FC00FF" fill-opacity="0.22"/>
<path d="M163.597 25.9132C167.046 26.9917 132.909 30.5948 115.6 37.3943C98.2911 44.1937 65.1874 69.8189 82.6365 53.103C100.085 36.387 105.147 35.7667 116.047 30.9268C126.946 26.0869 148.026 21.0447 163.597 25.9132Z" fill="#FC00FF" fill-opacity="0.22"/>
<path d="M47.4769 203.089C46.7873 199.779 62.4739 223.494 73.5143 232.37C84.5546 241.246 113.504 250.227 96.2528 247.525C79.0018 244.824 76.6225 241.362 69.3238 236.126C62.0252 230.891 50.5899 218.031 47.4769 203.089Z" fill="#FC00FF" fill-opacity="0.22"/>
<ellipse cx="97.4886" cy="91.9024" rx="8.22682" ry="2.21491" fill="#FC00FF" fill-opacity="0.22"/>
<ellipse cx="121.22" cy="79.8785" rx="8.54323" ry="2.21491" fill="#FC00FF" fill-opacity="0.22"/>
<ellipse cx="123.751" cy="108.672" rx="8.54323" ry="1.8985" fill="#FC00FF" fill-opacity="0.22"/>
<ellipse cx="162.037" cy="96.6486" rx="8.22682" ry="2.53133" fill="#FC00FF" fill-opacity="0.22"/>
<ellipse cx="143.369" cy="70.0697" rx="8.54323" ry="2.53133" fill="#FC00FF" fill-opacity="0.22"/>
<ellipse cx="167.1" cy="55.5145" rx="8.22682" ry="2.53133" fill="#FC00FF" fill-opacity="0.22"/>
<ellipse cx="193.363" cy="60.5772" rx="8.54323" ry="2.53133" fill="#FC00FF" fill-opacity="0.22"/>
<ellipse cx="188.616" cy="79.8785" rx="8.22682" ry="2.21491" fill="#FC00FF" fill-opacity="0.22"/>
<ellipse cx="181.339" cy="113.102" rx="8.54323" ry="2.53133" fill="#FC00FF" fill-opacity="0.22"/>
<ellipse cx="217.41" cy="101.711" rx="7.9104" ry="2.53133" fill="#FC00FF" fill-opacity="0.22"/>
<ellipse cx="222.157" cy="70.0697" rx="8.22682" ry="2.53133" fill="#FC00FF" fill-opacity="0.22"/>
<ellipse cx="236.395" cy="89.6875" rx="8.54323" ry="2.53133" fill="#FC00FF" fill-opacity="0.22"/>
<ellipse cx="222.157" cy="127.657" rx="8.22682" ry="2.53133" fill="#FC00FF" fill-opacity="0.22"/>
<ellipse cx="262.974" cy="110.571" rx="8.54323" ry="2.53133" fill="#FC00FF" fill-opacity="0.22"/>
<ellipse cx="268.037" cy="87.1561" rx="8.54323" ry="2.53133" fill="#FC00FF" fill-opacity="0.22"/>
<ellipse cx="265.505" cy="84.6248" rx="8.54323" ry="2.53133" fill="#FC00FF" fill-opacity="0.22"/>
<ellipse cx="289.237" cy="91.9024" rx="8.22682" ry="2.21491" fill="#FC00FF" fill-opacity="0.22"/>
<ellipse cx="296.831" cy="113.102" rx="8.22682" ry="2.53133" fill="#FC00FF" fill-opacity="0.22"/>
<ellipse cx="260.759" cy="67.5383" rx="8.22682" ry="2.53133" fill="#FC00FF" fill-opacity="0.22"/>
<path d="M227.656 269.987L194.694 242.898L226.284 259.361C227.816 260.159 229.651 260.11 231.138 259.231L257.386 243.724L227.656 269.987Z" fill="#FC00FF" fill-opacity="0.22"/>
</svg>
